<?xml version="1.0" encoding="UTF-8" standalone="no"?>
<svg width="121px" height="32px" viewBox="0 0 121 32" version="1.1" xmlns="http://www.w3.org/2000/svg" xmlns:xlink="http://www.w3.org/1999/xlink" xmlns:sketch="http://www.bohemiancoding.com/sketch/ns">
    <!-- Generator: Sketch 3.4.3 (16044) - http://www.bohemiancoding.com/sketch -->
    <title>Filestack Logo</title>
    <desc>Created with Sketch.</desc>
    <defs>
        <path id="path-1" d="M0,0 L84.6,0 L84.6,19.2 L0,19.2 L0,0 Z"></path>
    </defs>
    <g id="Page-1" stroke="none" stroke-width="1" fill="none" fill-rule="evenodd" sketch:type="MSPage">
        <g id="Filestack-Logo" sketch:type="MSArtboardGroup">
            <path d="M25,22 L25,3 L3,3 L3,29 L18,29 L18,32 L28,32 L28,22 L25,22 Z M0,0 L28,0 L28,32 L0,32 L0,0 Z M20,24 L28,24 L20,32 L20,24 Z M9,9 L19,9 L19,12 L9,12 L9,9 Z M9,14 L17,14 L17,17 L9,17 L9,14 Z M9,19 L12,19 L12,22 L9,22 L9,19 Z" id="Rectangle-356" fill="#EF4925" sketch:type="MSShapeGroup"></path>
            <g id="Page-1" sketch:type="MSLayerGroup" transform="translate(36.000000, 6.000000)">
                <path d="M6.82206,0.3102 L6.82206,2.61 L5.55606,2.61 C4.85826,2.61 4.47066,2.9976 4.47066,3.7212 L4.47066,5.2974 L6.82206,5.2974 L6.82206,7.9074 L4.47066,7.9074 L4.47066,18.8898 L1.36986,18.8898 L1.36986,7.9074 L6e-05,7.9074 L6e-05,5.2974 L1.36986,5.2974 L1.36986,3.6432 C1.36986,1.8348 2.09286,0 4.57386,0 C5.29746,0 6.30546,0.1548 6.82206,0.3102" id="Fill-1" fill="#FFFFFF" sketch:type="MSShapeGroup"></path>
                <mask id="mask-2" sketch:name="Clip 4" fill="white">
                    <use xlink:href="#path-1"></use>
                </mask>
                <g id="Clip-4"></g>
                <path d="M8.217,5.2974 L11.3178,5.2974 L11.3178,18.8898 L8.217,18.8898 L8.217,5.2974 Z M8.217,0.207 L11.3178,0.207 L11.3178,3.0234 L8.217,3.0234 L8.217,0.207 Z" id="Fill-3" fill="#FFFFFF" sketch:type="MSShapeGroup" mask="url(#mask-2)"></path>
                <path d="M14.1084,0.207 L17.2092,0.207 L17.2092,18.8898 L14.1084,18.8898 L14.1084,0.207 Z" id="Fill-5" fill="#FFFFFF" sketch:type="MSShapeGroup" mask="url(#mask-2)"></path>
                <path d="M22.66182,10.62066 L26.27922,10.62066 C26.27922,8.65686 25.76262,7.51986 24.62562,7.51986 C23.30802,7.51986 22.76502,8.65686 22.66182,10.62066 M29.53542,12.09366 L29.53542,12.86886 L22.63602,12.86886 C22.66182,15.29826 23.20422,16.66746 24.72882,16.66746 C25.78842,16.66746 26.46042,15.71166 26.46042,14.08386 L29.53542,14.08386 C29.53542,17.57226 27.49422,19.20006 24.72882,19.20006 C21.24042,19.20006 19.40562,16.97766 19.40562,12.09366 C19.40562,7.20966 21.26622,4.98726 24.62562,4.98726 C27.90762,4.98726 29.53542,7.20966 29.53542,12.09366" id="Fill-6" fill="#FFFFFF" sketch:type="MSShapeGroup" mask="url(#mask-2)"></path>
                <path d="M40.905,8.6826 C40.905,8.967 40.8792,9.2508 40.8792,9.2772 L37.7262,9.2772 C37.7262,8.0628 37.1322,7.5198 36.2016,7.5198 C35.2458,7.5198 34.5996,8.0364 34.5996,8.8638 C34.5996,11.499 41.241,9.432 41.241,14.8068 C41.241,18.1146 39.0702,19.2 36.1758,19.2 C33.0492,19.2 31.2402,17.4684 31.2402,14.8842 C31.2402,14.7552 31.266,14.574 31.266,14.574 L34.419,14.574 L34.419,14.7552 C34.4448,16.2024 35.4006,16.6674 36.2796,16.6674 C37.1064,16.6674 38.088,16.3056 38.088,15.1944 C38.088,12.3258 31.4472,14.3676 31.4472,9.1218 C31.4472,6.357 33.5916,4.9872 36.3054,4.9872 C38.8896,4.9872 40.905,6.357 40.905,8.6826" id="Fill-7" fill="#FFFFFF" sketch:type="MSShapeGroup" mask="url(#mask-2)"></path>
                <path d="M48.8376,5.29734 L48.8376,7.90734 L46.8738,7.90734 L46.8738,15.47874 C46.8738,16.20234 47.2614,16.58994 47.9592,16.58994 L48.8376,16.58994 L48.8376,18.88974 C48.3984,19.04514 47.5716,19.19994 46.977,19.19994 C44.496,19.19994 43.773,17.36514 43.773,15.55674 L43.773,7.90734 L42.4032,7.90734 L42.4032,5.29734 L43.773,5.29734 L44.238,1.47294 L46.8738,1.47294 L46.8738,5.29734 L48.8376,5.29734 Z" id="Fill-8" fill="#FFFFFF" sketch:type="MSShapeGroup" mask="url(#mask-2)"></path>
                <path d="M52.76508,15.09144 C52.76508,16.02144 53.23008,16.61604 54.28968,16.61604 C55.76268,16.61604 56.33088,15.24624 56.33088,13.64424 L56.33088,12.86904 C54.52248,12.86904 52.76508,13.33404 52.76508,15.09144 M59.45808,8.99304 L59.45808,15.68604 C59.45808,16.33164 59.81988,16.59024 60.18168,16.59024 L60.80148,16.59024 L60.80148,18.78684 C60.46548,18.96744 59.89728,19.20024 58.96668,19.20024 C57.72648,19.20024 56.87388,18.47664 56.56368,17.41704 L56.43468,17.41704 C55.65948,18.50244 54.80628,19.20024 52.99788,19.20024 C51.73128,19.20024 49.58688,18.52824 49.58688,15.37584 C49.58688,11.70624 52.37748,10.62084 56.33088,10.62084 L56.33088,9.19944 C56.33088,8.26944 56.09868,7.52004 54.91008,7.52004 C53.64348,7.52004 53.28228,8.29524 53.28228,8.94144 L53.28228,9.32844 L50.25828,9.32844 C50.23248,9.17364 50.23248,8.99304 50.23248,8.76024 C50.23248,6.48624 52.04148,4.98744 54.83208,4.98744 C57.98508,4.98744 59.45808,6.46044 59.45808,8.99304" id="Fill-9" fill="#FFFFFF" sketch:type="MSShapeGroup" mask="url(#mask-2)"></path>
                <path d="M71.86104,10.41408 L68.68284,10.41408 C68.68284,8.50188 68.16564,7.59708 67.10664,7.59708 C65.78844,7.59708 65.29764,8.99268 65.29764,11.60268 L65.29764,12.58488 C65.29764,15.19488 65.81424,16.58988 67.20984,16.58988 C68.32104,16.58988 68.78604,15.63348 68.78604,13.77348 L71.86104,13.77348 C71.86104,17.57208 70.05204,19.19988 67.20984,19.19988 C63.66924,19.19988 62.06724,16.97748 62.06724,12.09348 C62.06724,7.20948 63.74724,4.98768 67.10664,4.98768 C70.00044,4.98768 71.86104,6.61548 71.86104,10.41408" id="Fill-10" fill="#FFFFFF" sketch:type="MSShapeGroup" mask="url(#mask-2)"></path>
                <path d="M81.0858,5.29734 L84.3936,5.29734 L80.3622,10.82754 L84.6,18.88974 L81.1632,18.88974 L78.4242,13.25694 L77.2872,14.65194 L77.2872,18.88974 L74.1864,18.88974 L74.1864,0.20694 L77.2872,0.20694 L77.2872,10.69854 L81.0858,5.29734 Z" id="Fill-11" fill="#FFFFFF" sketch:type="MSShapeGroup" mask="url(#mask-2)"></path>
            </g>
        </g>
    </g>
</svg>